<svg xmlns="http://www.w3.org/2000/svg" viewBox="0 0 78.21 44.26"><title>icon-kontakt-baeckerei</title><g id="Ebene_2" data-name="Ebene 2"><g id="Ebene_3" data-name="Ebene 3"><path d="M76.86,29.81a49.55,49.55,0,0,0-9.25-12.63,11.59,11.59,0,0,0-3-6.77A17.9,17.9,0,0,0,52.54,4.35,7.71,7.71,0,0,0,51.73,3a7.27,7.27,0,0,0-5.86-3H32.07a7.46,7.46,0,0,0-5.86,3,7.7,7.7,0,0,0-.68,1.09A18.91,18.91,0,0,0,13.2,10.15a11.59,11.59,0,0,0-3,7.34A55,55,0,0,0,1.35,29.55,9.74,9.74,0,0,0,9.94,44.26a7.49,7.49,0,0,0,3.38-.65L27,38.2a15.08,15.08,0,0,0,5.36,1,8.42,8.42,0,0,0,2-.21,5.36,5.36,0,0,0,9.24.07,16.86,16.86,0,0,0,2,.14,15.44,15.44,0,0,0,5.34-1l13.66,5.52a9.71,9.71,0,0,0,3.38.52A11,11,0,0,0,76.73,40,9.81,9.81,0,0,0,76.86,29.81ZM12.42,41.27A7.64,7.64,0,0,1,3.56,38.4a7.17,7.17,0,0,1,0-7.55,53.33,53.33,0,0,1,7-9.94,11.66,11.66,0,0,0,2.94,5.25l8.85,9.24a16,16,0,0,0,1.6,1.21Zm15.81-5.41a1.62,1.62,0,0,0-.45-.32,12,12,0,0,1-3.51-2.08l-8.72-9.11a9.38,9.38,0,0,1-2.6-6.51,1.07,1.07,0,0,0-.14-.52,9,9,0,0,1,2.35-5.47,15.92,15.92,0,0,1,9.5-5.08A7.37,7.37,0,0,0,25,10.15l8.2,26.3A13,13,0,0,1,28.23,35.86ZM39,39.06A2.79,2.79,0,0,1,36.24,37L27.52,9.37a5.31,5.31,0,0,1,.78-4.82,4.75,4.75,0,0,1,3.78-2h13.8a4.57,4.57,0,0,1,3.78,2,5.44,5.44,0,0,1,.57,1A1.7,1.7,0,0,0,50.3,6,3.83,3.83,0,0,1,50.64,7a5.21,5.21,0,0,1-.21,2.33L41.71,37l-.05.14a.14.14,0,0,0-.08.12.81.81,0,0,0-.07.23A2.73,2.73,0,0,1,39,39.06Zm5.62-2.6,8.31-26.3a7.58,7.58,0,0,0,.39-3.38,17.33,17.33,0,0,1,9.37,4.95,9.22,9.22,0,0,1-.13,12.5l-8.72,9.11A12,12,0,0,1,44.59,36.45Zm29.66,2a7.59,7.59,0,0,1-8.72,2.86L54.11,36.65a16.64,16.64,0,0,0,1.53-1.11l8.72-9.11a11.66,11.66,0,0,0,3-5.57,54.34,54.34,0,0,1,7,10.13A7.23,7.23,0,0,1,74.25,38.4Z"/></g></g></svg>