<svg xmlns="http://www.w3.org/2000/svg" viewBox="0 0 78.64 75.97"><title>icon-kontakt-fruehstueck</title><g id="Ebene_2" data-name="Ebene 2"><g id="Ebene_3" data-name="Ebene 3"><path d="M78.64,40a5.35,5.35,0,0,0-2.87-4.72A37.39,37.39,0,0,0,38.65,1.33a35.74,35.74,0,0,0-20,6.07C16.88,2.92,13.7,0,10,0,4.4,0,0,6.66,0,15.33A19.66,19.66,0,0,0,3.32,26.79a36.65,36.65,0,0,0-2,11.86,38.57,38.57,0,0,0,4.59,18q-.2,1.53-.46,3.05l-1.2,8.13a5.48,5.48,0,0,0,0,2.93L4.4,71A6.41,6.41,0,0,0,10.66,76,6.68,6.68,0,0,0,17.06,71l.13-.27a9.88,9.88,0,0,0,.1-1.48A37.35,37.35,0,0,0,75.43,44.87,5.35,5.35,0,0,0,78.64,40ZM10,2.67c4,0,7.33,5.73,7.33,12.66,0,4.85-1.7,9.22-4.12,11.33h0l-.53.27a4.4,4.4,0,0,1-5.33.13L7,26.81l-.16-.13c-2.43-2.1-4.14-6.49-4.14-11.35C2.67,8.4,6,2.67,10,2.67ZM5.33,28.93h0A91.29,91.29,0,0,1,6.4,51.45,34.63,34.63,0,0,1,4,38.65,34.29,34.29,0,0,1,5.33,28.93Zm9.2,41.18-.13.27a4,4,0,0,1-3.73,2.93,3.7,3.7,0,0,1-3.6-2.93l-.13-.27a3.79,3.79,0,0,1,0-1.73l1.2-8.13q.29-1.83.52-3.67l0-.06c0-.3.06-.59.09-.89a102.92,102.92,0,0,0-.35-25.16,6.85,6.85,0,0,0,1.59.19A7,7,0,0,0,13,29.95a101,101,0,0,0-.5,25.34q.26,2.48.65,5l.93,6.13a.94.94,0,0,0,.16.5l.24,1.5A3.8,3.8,0,0,1,14.53,70.11Zm24.12,3.2A35,35,0,0,1,16.8,65.55l-.94-5.71A93.77,93.77,0,0,1,14.63,45,99.41,99.41,0,0,1,16,28.26l.13-.76C18.49,24.71,20,20.32,20,15.33v-.13s0-.07,0-.1,0-.35,0-.53v0a23.14,23.14,0,0,0-.62-4.69A34.36,34.36,0,0,1,38.65,4,34.72,34.72,0,0,1,73,34.65H59.6a21.33,21.33,0,1,0-.69,10.66H72.64A34.7,34.7,0,0,1,38.65,73.31ZM57.18,38.65a20.91,20.91,0,0,1-.67,4.93,1,1,0,0,0,0,.55,18.65,18.65,0,1,1,.58-8.49,4.13,4.13,0,0,0,0,.48A17,17,0,0,1,57.18,38.65Zm17.09,3.82a1.06,1.06,0,0,0-.3,0,1.26,1.26,0,0,1-.42.12h-14A21.19,21.19,0,0,0,60,39.16q0-.25,0-.51V37.32H73.31a2.64,2.64,0,0,1,.4,0,.84.84,0,0,1,.4.23,1,1,0,0,0,.44,0,2.66,2.66,0,0,1-.28,4.84Z"/><path d="M9.33,25.32c1.87,0,5.33-4.53,5.33-10.66a1.26,1.26,0,0,0-1.33-1.33A1.26,1.26,0,0,0,12,14.66c0,4.93-2.4,7.6-3.07,8A1.32,1.32,0,0,0,8,24,1.26,1.26,0,0,0,9.33,25.32Z"/><path d="M38.65,22.66a16,16,0,1,0,16,16A16,16,0,0,0,38.65,22.66Zm0,29.32A13.33,13.33,0,1,1,52,38.65,13.37,13.37,0,0,1,38.65,52Z"/><path d="M46.65,38.65a8,8,0,0,1-8,8,1.33,1.33,0,1,0,0,2.67A10.69,10.69,0,0,0,49.32,38.65a1.33,1.33,0,1,0-2.67,0Z"/><path d="M40,38.65v-4A5.33,5.33,0,1,0,34.65,40h4A1.26,1.26,0,0,0,40,38.65Zm-2.67-1.33H34.65a2.67,2.67,0,1,1,2.67-2.67Z"/></g></g></svg>