<svg xmlns="http://www.w3.org/2000/svg" viewBox="0 0 70.64 71.75"><title>icon-kontakt-kaffee</title><g id="Ebene_2" data-name="Ebene 2"><g id="Ebene_3" data-name="Ebene 3"><path d="M63.47,61.86H48.38a22.5,22.5,0,0,0,9-6.36c9.14-1.39,13.24-8.95,13.24-15.91,0-4.94-2.75-9.06-6.31-9.78v-.11a2.54,2.54,0,0,0-2.47-2.47H4.95A2.44,2.44,0,0,0,3.22,28a2.44,2.44,0,0,0-.74,1.73c.1,13.31,2.41,26.76,16,32.17H3.22A3.19,3.19,0,0,0,0,65.07a3,3,0,0,0,2.72,3l15.71,1.11a.93.93,0,0,1,.87.62,3.57,3.57,0,0,0,3.22,2H43.05a3.26,3.26,0,0,0,3.09-2,.93.93,0,0,1,.87-.62L63.84,68H64a3,3,0,0,0,2.72-3A3.19,3.19,0,0,0,63.47,61.86Zm.87-29.44c2.1.74,3.71,3.71,3.71,7.18,0,4.82-2.22,10.63-8.4,12.74l.3-.53C63.38,45.83,64.09,38.66,64.33,32.41ZM4.95,29.69H61.86c-.12,16.7-3.71,32.17-28.45,32.17S5.07,46.39,4.95,29.69ZM63.71,65.57,47.14,66.68a3.86,3.86,0,0,0-3,2,1.26,1.26,0,0,1-1,.62H22.52a1.26,1.26,0,0,1-1-.62,3.86,3.86,0,0,0-3-2L3.09,65.57c-.62-.12-.62-.37-.62-.49a.8.8,0,0,1,.74-.74H63.59a.8.8,0,0,1,.74.74C64.33,65.2,64.33,65.44,63.71,65.57Z"/><path d="M32.54,10.27C30.68,12.12,29.69,14,29.69,16s1,4,2.85,5.94a1.2,1.2,0,0,0,1.73,0,1.2,1.2,0,0,0,0-1.73c-1.36-1.48-2.1-2.85-2.1-4.21a5.52,5.52,0,0,1,2.1-4,7.92,7.92,0,0,0,2.85-5.69A8.15,8.15,0,0,0,34.27.37a1.2,1.2,0,0,0-1.73,0,1.2,1.2,0,0,0,0,1.73c1.36,1.48,2.1,2.85,2.1,4.21A5.52,5.52,0,0,1,32.54,10.27Z"/><path d="M43.3,16c0,2,1,4,2.85,5.94a1.12,1.12,0,0,0,.87.37.88.88,0,0,0,.74-.37,1.2,1.2,0,0,0,0-1.73c-1.36-1.48-2.1-2.85-2.1-4.21a5.52,5.52,0,0,1,2.1-4,7.65,7.65,0,0,0,3-5.69A8,8,0,0,0,47.88.37a1.2,1.2,0,0,0-1.73,0,1.2,1.2,0,0,0,0,1.73c1.36,1.48,2.1,2.85,2.1,4.21s-.74,2.6-2.1,4C44.29,12.12,43.3,14,43.3,16Z"/><path d="M17.32,16c0,2,1,4,2.85,5.94a1.12,1.12,0,0,0,.87.37.88.88,0,0,0,.74-.37,1.2,1.2,0,0,0,0-1.73c-1.36-1.48-2.1-2.85-2.1-4.21a5.52,5.52,0,0,1,2.1-4,7.65,7.65,0,0,0,3-5.69A8,8,0,0,0,21.9.37a1.2,1.2,0,0,0-1.73,0,1.2,1.2,0,0,0,0,1.73c1.36,1.48,2.1,2.85,2.1,4.21s-.74,2.6-2.1,4C18.31,12.12,17.32,14,17.32,16Z"/><path d="M26.23,55.67C17.44,54.19,13,49.24,11.13,39.34a1.36,1.36,0,0,0-1.48-1,1.36,1.36,0,0,0-1,1.48c2,11,7.3,16.58,17.07,18.31H26a1.2,1.2,0,0,0,1.24-1A1.28,1.28,0,0,0,26.23,55.67Z"/></g></g></svg>