<?xml version="1.0" encoding="utf-8"?>
<!-- Generator: Adobe Illustrator 21.1.0, SVG Export Plug-In . SVG Version: 6.00 Build 0)  -->
<svg version="1.1" id="Ebene_1" xmlns="http://www.w3.org/2000/svg" xmlns:xlink="http://www.w3.org/1999/xlink" x="0px" y="0px"
	 viewBox="0 0 190.3 124" style="enable-background:new 0 0 190.3 124;" xml:space="preserve">
<g>
	<g>
		<g>
			<path d="M89,32.7v0.4h-2.8v-0.4l0.8-0.2V28h-0.8v-0.4l1.6-0.4h0.5v5.3L89,32.7z"/>
			<path d="M94.2,29.5c0,2.1-1.3,3.4-3.5,3.8l-0.2-0.5c1.4-0.3,2.4-1.3,2.4-2.6h-0.1c0,0-0.4,0.7-1.4,0.7s-1.8-0.8-1.8-1.8
				c0-1.2,0.8-2,2.2-2C93.2,27,94.2,27.9,94.2,29.5z M91.9,27.6c-0.5,0-1,0.4-1,1.4c0,0.9,0.4,1.3,0.9,1.3c0.8,0,1.1-0.8,1.1-0.8
				C92.9,28.1,92.4,27.6,91.9,27.6z"/>
			<path d="M97.6,29.9L97.6,29.9c0,0.1,1.3,0.4,1.3,1.6c0,0.9-0.8,1.7-2.3,1.7c-1.1,0-1.8-0.4-1.8-0.4l0.1-1.4h0.6l0.1,1
				c0,0,0.3,0.2,0.8,0.2c0.6,0,1.1-0.5,1.1-1.1c0-0.7-0.5-1.2-1.2-1.2h-0.4v-0.7h0.4c0.7,0,1.1-0.4,1.1-1.1c0-0.6-0.4-1-1-1
				c-0.5,0-0.8,0.2-0.8,0.2l-0.1,1h-0.6l0.1-1.3c0,0,0.6-0.4,1.8-0.4c1.4,0,2.1,0.7,2.1,1.5C98.9,29.7,97.6,29.9,97.6,29.9z"/>
			<path d="M100,28.6c0-0.8,0.7-1.5,2-1.5s2,0.7,2,1.5c0,1-1,1.3-1,1.3V30c0,0,1.3,0.4,1.3,1.6c0,1-0.8,1.7-2.3,1.7
				s-2.3-0.8-2.3-1.6c0-1.1,1.3-1.4,1.3-1.4v-0.2C101,30.1,100,29.7,100,28.6z M101.7,30.4c0,0-0.8,0.3-0.8,1.2c0,0.6,0.4,1,1.1,1
				c0.8,0,1.2-0.4,1.2-1C103.2,30.8,101.7,30.4,101.7,30.4z M102.3,29.5c0,0,0.6-0.3,0.6-1c0-0.5-0.3-0.8-0.9-0.8
				c-0.5,0-0.8,0.3-0.8,0.8C101.1,29.1,102.3,29.5,102.3,29.5z"/>
		</g>
		<g>
			<g>
				<path d="M107.2,21.6c0,0-0.4-0.1-0.9-0.4l0,0c-0.1,0-0.1,0-0.2,0c-1.1-0.4-2.9-1.4-4.3-2.4c-0.5-0.3-0.9-0.6-1.4-0.9
					c-0.9-0.6-1.8-1.3-2.6-2.1l0,0l-0.1-0.1l-0.1-0.1c-0.1-0.1-0.3-0.3-0.5-0.5l0,0c-0.2-0.2-0.3-0.3-0.5-0.5l0,0l0,0
					c-0.1-0.1-0.2-0.2-0.2-0.3c-0.1-0.1-0.2-0.2-0.2-0.3c-0.1-0.1-0.2-0.2-0.2-0.3c-0.1-0.1-0.2-0.2-0.2-0.3
					c-0.1-0.2-0.3-0.5-0.4-0.7c-0.1-0.1-0.1-0.2-0.2-0.4c-0.1-0.1-0.1-0.2-0.2-0.4c0,0,0-0.1-0.1-0.1l0,0c-0.2-0.4-0.3-0.8-0.4-1.2
					c0,0,0,0,0-0.1v-0.1v-0.1l0,0c-0.1-0.5-0.1-1-0.1-1.5c0,0,0,0,0-0.1c0,0,0,0,0-0.1V8.5c0-0.2-0.1-0.3-0.1-0.5s-0.1-0.3-0.2-0.5
					c0-0.1-0.1-0.2-0.1-0.3c0,0,0-0.1-0.1-0.1V7V6.9c0-0.1-0.1-0.2-0.1-0.3s-0.1-0.2-0.2-0.2c0-0.1-0.1-0.2-0.2-0.2l-0.1-0.1L93.2,6
					c-0.1-0.1-0.3-0.3-0.4-0.4c-0.1-0.1-0.1-0.1-0.2-0.2c0,0-0.1,0-0.1-0.1c-0.6,1-0.9,2.1-1,3.2c-0.1,1.8,0.3,3.4,1,4.9
					c1.3,2,2.4,3.4,3.8,4.8l0.1,0.1c0.3,0.3,0.7,0.6,1.1,0.9c0,0,0.1,0,0.1,0.1c0.1,0.1,0.2,0.2,0.3,0.3c0.3,0.2,0.5,0.4,0.8,0.6
					l0,0c1,0.7,1.8,1.2,2.8,1.7c0.3,0.2,0.7,0.4,1,0.6c0.1,0,0.1,0.1,0.2,0.2c1.9,1,3.4,1.6,3.5,1.7c0.7,0.3,1.6-0.1,1.9-0.8
					C108.4,22.7,108,21.9,107.2,21.6z"/>
				<path d="M108.8,4.2c-1.7-2.4-4.3-3.9-7-3.9l0,0c-2.5,0-4.4,0.6-5.8,1.5c0.8,0.7,1.4,1.4,1.9,2.3c1.1-0.6,2.5-0.8,4-0.8
					c1.7,0,3.5,1,4.6,2.6c1.5,2.2,1.8,5,0.8,7.8c-0.4,1.2-1.8,3.2-4.2,4.7c0.9,0.6,1.9,1.2,2.8,1.6c1.9-1.5,3.4-3.5,4.1-5.3
					C111.2,11,110.8,7.1,108.8,4.2z"/>
				<path d="M84.7,20c0.9-0.4,1.9-0.9,2.8-1.6c-0.2-0.1-0.4-0.2-0.5-0.3c-2-1.4-3.1-3-3.6-4.1c-1.2-2.8-1-5.9,0.5-8.1
					c1.1-1.6,2.8-2.5,4.8-2.5l0,0c1.8,0,3.3,0.4,4.4,1.2l0,0l0.1,0.1c0.1,0.1,0.2,0.1,0.3,0.2C93.7,5,93.8,5.2,94,5.4l0.1,0.1
					l0.1,0.1c0.1,0.1,0.1,0.2,0.2,0.3s0.1,0.2,0.2,0.3s0.1,0.2,0.2,0.3v0.1v0.1c0,0.1,0,0.1,0.1,0.2C94.9,7,95,7.1,95,7.2
					c0.1,0.2,0.1,0.4,0.2,0.6s0.1,0.4,0.1,0.5v0.1v0.1l0,0c0,0.1,0,0.2,0,0.3c0.1,0.4,0.1,0.8,0,1.2v0.1v0.1
					c0.1,0.2,0.1,0.4,0.2,0.6c0,0.1,0.1,0.2,0.1,0.3c0,0.1,0,0.1,0.1,0.2c0,0.1,0,0.1,0.1,0.2c0,0.1,0.1,0.2,0.1,0.3
					c0.1,0.1,0.1,0.2,0.2,0.3c0.1,0.2,0.2,0.4,0.4,0.6c0.1,0.1,0.1,0.2,0.2,0.3c0.1,0.1,0.1,0.2,0.2,0.3c0.1,0.1,0.1,0.2,0.2,0.3
					l0,0c1-1.8,1.3-3.6,1-5.3c-0.2-1.4-0.7-2.6-1.3-3.7c-0.5-0.8-1.1-1.6-1.9-2.2l0,0l-0.1-0.1c-0.3-0.2-0.6-0.4-0.9-0.6
					c-0.1,0-0.1-0.1-0.1-0.1c-1.5-0.8-3.2-1.2-5.3-1.2l0,0c-3,0-5.5,1.4-7.2,3.8c-2,3-2.3,7.1-0.8,10.8C81.4,16.7,82.9,18.6,84.7,20
					z"/>
				<path d="M91.5,20c0.1-0.1,0.2-0.2,0.3-0.2c0.1,0,0.1-0.1,0.2-0.1c0.1-0.1,0.3-0.2,0.4-0.3c0,0,0.1,0,0.1-0.1
					c0.7-0.6,1.3-1.2,1.9-1.7c-0.6-0.7-1.2-1.5-1.8-2.3c-0.8,0.9-1.7,1.6-2.6,2.3c-0.3,0.3-0.7,0.5-1,0.8c-1.3,1.3-2.7,2.1-4.1,2.7
					c-1,0.6-1.6,0.9-1.6,0.9c-0.7,0.4-1,1.2-0.7,1.9c0.3,0.5,0.8,0.8,1.3,0.8c0.2,0,0.4,0,0.6-0.2c0.1,0,1.3-0.7,3.1-1.7
					c0,0,0,0,0.1,0c0,0,0.1,0,0.1-0.1c0.2-0.1,0.5-0.3,0.7-0.4l0,0C89.6,21.5,90.5,20.9,91.5,20L91.5,20z"/>
				<path d="M95.6,20.5c-1,0-1.9-0.1-2.9-0.2c-1.1,1-2,1.6-3,2.3c1.8,0.6,3.8,0.9,5.8,0.9s3.7-0.3,5.2-0.8c-1.1-0.6-2.1-1.2-3.4-2.2
					C96.8,20.5,96.2,20.5,95.6,20.5z"/>
			</g>
			<g>
				<path d="M115.9,13c3.1,2.1,6.3,0.8,6.3,0.8l0.2,0.7c3.1-0.8,4.7-3.8,4.7-3.8c0.1,0.2,0.2,0.4,0.2,0.6c1-1.4,1.5-3.1,1.3-4.9
					c0.2,0.1,0.5,0.2,0.7,0.4c-0.1-1.5-0.7-3-1.8-4.3c0.3-0.1,0.7-0.2,1.1-0.2c-1.4-1.4-3.4-2.3-5.5-2.3c-1.8,0-3.7,0.6-5.1,1.9
					c-0.1,0.5,0,0.9,0,1.3c-0.5,0.1-1.2,0.4-1.9,1c0,0,0,0.8,0.5,1.5c0.1-0.2,0.4-0.4,0.6-0.4c0.4,0,0.7,0.3,0.7,0.7
					s-0.3,0.7-0.7,0.7h-0.1c0,0.2,0,0.5,0.1,0.8h1.6c0-0.1,0-0.1,0-0.2c0-0.2,0.1-0.3,0.2-0.5l0,0c0.1-0.2,0.4-0.3,0.6-0.3
					c0.4,0,0.8,0.4,0.8,0.8c0,1.2-1,2.1-2.1,2.1s-2.1-0.9-2.1-2c-0.8,1.2-0.2,3.1,1,3.9c-0.6,0.1-2-0.1-2.4-1
					C114.7,10.5,114.4,12,115.9,13z"/>
				<path d="M111.1,7.1c0.5,0.2,0.9,0.6,1,1.1c-0.3-0.3-0.6-0.5-0.9-0.5c0,0.2,0.1,0.3,0.1,0.5c0.3,0.2,0.6,0.5,0.7,0.9
					c-0.2-0.2-0.4-0.4-0.6-0.4c0,0.3,0.1,0.6,0.1,0.9c1.3,0.4,2.3,1.7,2.3,2.4l0.5,0.3c-0.5-0.8-0.5-1.5-0.3-2.5l0.1-0.4l-1.2-0.1
					c0.1-0.2,0.2-0.4,0.2-0.7c0.1-0.7-0.4-2.1-1.9-2.2c-0.1,0-0.2,0-0.4,0v0.1C111,6.7,111,6.9,111.1,7.1z"/>
				<path d="M119.8,23.9h4.5c-0.9-1.6-2.5-2.8-4.4-3c-0.3-0.3-0.5-0.6-0.8-0.9h-3.5c-0.8,0-1.5-0.6-1.6-1.5
					c-0.6,0.9-0.4,2.1,0.4,2.7c0,0,0.1,0,0.1,0.1c-0.7,0.1-1.3-0.3-1.6-0.9c-0.3,1,0.3,2.1,1.4,2.4c0.1,0,0.2,0,0.3,0.1l1.1,4
					l-1.3,1.5c-0.1-0.3-0.3-0.5-0.5-0.7c-0.5-0.3-1.8-0.6-2.5,0.5c-0.1,0.1-0.1,0.2-0.2,0.3l0.3,0.2c0.4-0.4,1-0.6,1.5-0.4
					c-0.5,0.1-0.8,0.4-1,0.8l0.2,0.1c0.4-0.4,1-0.5,1.5-0.4c-0.5,0.1-0.8,0.4-1,0.8l2,1.4l5-5c-0.5,0-0.9-0.5-0.9-1
					C118.9,24.2,119.3,23.9,119.8,23.9z"/>
				<path d="M130.8,21.5c1.7,0,3-1.4,3-3.1c0-3.5-4.7-3.2-4.7-5.1c0-0.9,0.6-1.2,1.3-1.2c0.2,0,0.3,0,0.5,0.1
					c-0.8,1.7,2.8,3.1,4,2.1c-1.6-0.3-0.9-1.8-1.8-2.6c-0.3-0.3-0.9-0.5-1.4-0.2c-0.4-0.3-0.9-0.4-1.4-0.4c-1.3,0-2.3,1-2.3,2.3
					c0,3,4.2,2.9,4.2,5c0,0.9-0.8,1.3-1.3,1.3h-1.6c-1.1-1.6-2.7-2.9-4.5-3.8v-1.8c-0.7,0.5-1.6,1-2.6,1.3l-0.3,0.1l-0.1-0.3
					l-0.1-0.4c-0.4,0.1-1.2,0.3-2.1,0.3c-1.5,0-2.9-0.4-4.2-1.3c-0.1-0.1-0.3-0.2-0.4-0.3l-2.3-0.1c0.1-0.2,0.2-0.4,0.2-0.7
					c0.1-0.6-0.3-1.8-1.5-2.1c0,0.3,0,0.6,0,0.9c0.2,0.2,0.4,0.5,0.5,0.7c-0.2-0.2-0.3-0.3-0.5-0.4c0,0.2,0,0.4-0.1,0.5
					c0.2,0.2,0.4,0.5,0.5,0.7c-0.2-0.2-0.4-0.3-0.6-0.4c-0.1,0.8-0.3,1.6-0.6,2.3c0,0.1-0.1,0.2-0.1,0.3l7.3,2.3l0.5-0.5
					c0.4,1.2,1.1,2.3,2,3.2c2.9,0.3,5.1,2.8,5.1,5.8c-0.2,0.8-1,1.3-1.8,1.1c0.7,0.8,1.9,1,2.7,0.3l0.1-0.1
					c-0.1,0.6-0.6,1.2-1.3,1.3c0.9,0.6,2.1,0.3,2.7-0.7l0,0l1.4,1.2l-0.2,2c-0.2-0.2-0.5-0.3-0.8-0.3c-0.6,0-1.8,0.5-1.8,1.8
					c0,0.1,0,0.2,0,0.3h0.4c0.1-0.6,0.5-1,1-1.2c-0.3,0.4-0.4,0.8-0.4,1.2h0.2c0.1-0.6,0.5-1,0.9-1.2c-0.3,0.4-0.4,0.8-0.4,1.2h2.4
					l1.4-6c1-0.6,1.3-1.9,0.8-2.9c-0.2,0.9-1.1,1.6-2.1,1.4c-0.9-0.1-1.6-0.9-1.6-1.8l0,0v-2.3h1.8V21.5z"/>
			</g>
			<g>
				<path d="M74.4,13c-3.1,2.1-6.3,0.8-6.3,0.8l-0.2,0.7c-3.1-0.8-4.7-3.8-4.7-3.8c-0.1,0.2-0.2,0.4-0.2,0.6c-1-1.4-1.5-3.1-1.3-4.9
					c-0.2,0.1-0.5,0.2-0.7,0.4c0.1-1.5,0.7-3,1.8-4.3c-0.3-0.1-0.7-0.2-1.1-0.2C63,0.9,65,0,67.2,0c1.8,0,3.7,0.6,5.1,1.9
					c0.1,0.5,0,0.9,0,1.3c0.5,0.1,1.2,0.4,1.9,1c0,0,0,0.8-0.5,1.5c-0.1-0.2-0.4-0.4-0.6-0.4c-0.4,0-0.7,0.3-0.7,0.7
					s0.3,0.7,0.7,0.7h0.1c0,0.2,0,0.5-0.1,0.8h-1.6c0-0.1,0-0.1,0-0.2c0-0.2-0.1-0.3-0.2-0.5l0,0c-0.1-0.2-0.4-0.3-0.6-0.3
					c-0.4,0-0.8,0.4-0.8,0.8c0,1.2,1,2.1,2.1,2.1s2.1-0.9,2.1-2c0.8,1.2,0.2,3.1-1,3.9c0.6,0.1,2-0.1,2.4-1
					C75.6,10.5,75.9,12,74.4,13z"/>
				<path d="M79.3,7.1c-0.5,0.2-0.9,0.6-1,1.1c0.3-0.3,0.6-0.5,0.9-0.5c0,0.2-0.1,0.3-0.1,0.5c-0.3,0.2-0.6,0.5-0.7,0.9
					c0.2-0.2,0.4-0.4,0.6-0.4c0,0.3-0.1,0.6-0.1,0.9c-1.3,0.4-2.3,1.7-2.3,2.4l-0.5,0.3c0.5-0.8,0.5-1.5,0.3-2.5l-0.1-0.4l1.2-0.1
					c-0.1-0.2-0.2-0.4-0.2-0.7c-0.1-0.7,0.4-2.1,1.9-2.2c0.1,0,0.2,0,0.4,0v0.1C79.4,6.7,79.4,6.9,79.3,7.1z"/>
				<path d="M70.6,23.9H66c0.9-1.6,2.5-2.8,4.4-3c0.3-0.3,0.5-0.6,0.8-0.9h3.5c0.8,0,1.5-0.6,1.6-1.5c0.6,0.9,0.4,2.1-0.4,2.7
					c0,0-0.1,0-0.1,0.1c0.7,0.1,1.3-0.3,1.6-0.9c0.3,1-0.3,2.1-1.4,2.4c-0.1,0-0.2,0-0.3,0.1l-1.1,4l1.3,1.5
					c0.1-0.3,0.3-0.5,0.5-0.7c0.5-0.3,1.8-0.6,2.5,0.5c0.1,0.1,0.1,0.2,0.2,0.3l-0.3,0.2c-0.4-0.4-1-0.6-1.5-0.4
					c0.5,0.1,0.8,0.4,1,0.8l-0.2,0.1c-0.4-0.4-1-0.5-1.5-0.4c0.5,0.1,0.8,0.4,1,0.8l-2,1.4l-5-5c0.5,0,0.9-0.5,0.9-1
					C71.5,24.2,71.1,23.9,70.6,23.9z"/>
				<path d="M59.6,21.5c-1.7,0-3-1.4-3-3.1c0-3.5,4.7-3.2,4.7-5.1c0-0.9-0.6-1.2-1.3-1.2c-0.2,0-0.3,0-0.5,0.1
					c0.8,1.7-2.8,3.1-4,2.1c1.6-0.3,0.9-1.8,1.8-2.6c0.3-0.3,0.9-0.5,1.4-0.2c0.4-0.3,0.9-0.4,1.4-0.4c1.3,0,2.3,1,2.3,2.3
					c0,3-4.2,2.9-4.2,5c0,0.9,0.8,1.3,1.3,1.3h1.6c1.1-1.6,2.7-2.9,4.5-3.8v-1.8c0.7,0.5,1.6,1,2.6,1.3l0.3,0.1l0.1-0.3l0.1-0.4
					c0.4,0.1,1.2,0.3,2.1,0.3c1.5,0,2.9-0.4,4.2-1.3c0.1-0.1,0.3-0.2,0.4-0.3l2.3-0.1c-0.1-0.2-0.2-0.4-0.2-0.7
					c-0.1-0.6,0.3-1.8,1.5-2.1c0,0.3,0,0.6,0,0.9c-0.2,0.2-0.4,0.5-0.5,0.7c0.2-0.2,0.3-0.3,0.5-0.4c0,0.2,0,0.4,0.1,0.5
					c-0.2,0.2-0.4,0.5-0.5,0.7c0.2-0.2,0.4-0.3,0.6-0.4c0.1,0.8,0.3,1.6,0.6,2.3c0,0.1,0.1,0.2,0.1,0.3l-7.3,2.3L72,17.1
					c-0.4,1.2-1.1,2.3-2,3.2c-2.9,0.3-5.1,2.8-5.1,5.8c0.2,0.8,1,1.3,1.8,1.1c-0.7,0.8-1.9,1-2.7,0.3l-0.1-0.1
					c0.1,0.6,0.6,1.2,1.3,1.3c-0.9,0.6-2.1,0.3-2.7-0.7l0,0l-1.4,1.2l0.2,2c0.2-0.2,0.5-0.3,0.8-0.3c0.6,0,1.8,0.5,1.8,1.8
					c0,0.1,0,0.2,0,0.3h-0.4c-0.1-0.6-0.5-1-1-1.2c0.3,0.4,0.4,0.8,0.4,1.2h-0.2c-0.1-0.6-0.5-1-0.9-1.2c0.3,0.4,0.4,0.8,0.4,1.2
					h-2.4l-1.4-6c-1-0.6-1.3-1.9-0.8-2.9c0.2,0.9,1.1,1.6,2.1,1.4c0.9-0.1,1.6-0.9,1.6-1.8l0,0v-2.3h-1.7V21.5z"/>
			</g>
		</g>
	</g>
	<g>
		<path d="M15.3,76.9c2.2,0,3.6-0.8,3.6-0.8v-6.5l-3.4-1v-1.8h11.6v1.8l-2.6,1v8.3c0,0-4.1,2.6-9.9,2.6C5.9,80.5,0,74.6,0,65.9
			s5.9-14.6,16.2-14.6c4.9,0,7.7,1.2,7.7,1.2l-0.6,7.3h-3l-0.6-5.1c0,0-1-0.6-3.6-0.6c-5.5,0-9.7,4.1-9.7,11.8
			C6.6,73.2,10.3,76.9,15.3,76.9z"/>
		<path d="M47.2,68c-1.8,0-3.2-0.2-3.2-0.2v9.1l3,1v1.8H35v-1.8l3-1V54.8l-3-1V52h12c7.7,0,11.2,3.6,11.2,7.9c0,5.3-5.1,6.9-5.1,6.9
			v0.4l14,25.8l3,1v1.8h-8.3L47.2,68z M44.1,65.1c0,0,1.2,0.4,2.4,0.4c3.6,0,5.7-2.2,5.7-5.5c0-3.2-2.2-5.3-6.1-5.3
			c-1.2,0-2,0.2-2,0.2L44.1,65.1z"/>
		<path d="M75.7,69.8c0,5.1,2.8,7.9,6.5,7.9s6.5-2.8,6.5-7.9v-15l-3-1V52h8.9v1.8l-3,1v15c0,6.7-3.9,10.7-11.1,10.7
			c-7.1,0-11.1-3.9-11.1-10.7v-15l-3-1V52h12v1.8l-3,1L75.7,69.8z"/>
		<path d="M119.3,65.3c0,0,6.9,0.8,6.9,7.1c0,3.9-3.4,7.3-12.2,7.3h-11.5v-1.8l3-1V54.8l-3-1V52H114c7.9,0,11,3.2,11,6.7
			c0,5.3-5.7,6.1-5.7,6.1V65.3z M111.6,63.9h2c3.4,0,5.3-2,5.3-4.5c0-2.8-2-4.7-5.3-4.7c-1.2,0-2,0.2-2,0.2V63.9z M111.6,76.9
			c0,0,0.8,0.2,2,0.2c4.3,0,6.5-2.2,6.5-5.3c0-3-2.2-5.1-6.5-5.1h-2V76.9z"/>
		<path d="M151.4,76.7l0.6-4.3h3l0.6,7.3h-21.5v-1.8l3-1V54.8l-3-1V52h20.7l-0.6,6.9h-3l-0.6-3.9h-7.5v9.5l8.7-0.8v3.9l-8.7-0.8v9.9
			L151.4,76.7z"/>
		<path d="M175.9,68c-1.8,0-3.2-0.2-3.2-0.2v9.1l3,1v1.8h-12v-1.8l3-1V54.8l-3-1V52h12c7.7,0,11.2,3.6,11.2,7.9
			c0,5.3-5.1,6.9-5.1,6.9v0.4l5.5,9.7l3,1v1.8H182L175.9,68z M172.7,65.1c0,0,1.2,0.4,2.4,0.4c3.6,0,5.7-2.2,5.7-5.5
			c0-3.2-2.2-5.3-6.1-5.3c-1.2,0-2,0.2-2,0.2L172.7,65.1z"/>
	</g>
</g>
<g>
	<path d="M37.8,109h6c4.9,0,8.1,3.1,8.1,7.3s-3.1,7.3-8.1,7.3h-6v-0.9l1.6-0.5v-11.7l-1.6-0.5C37.8,110,37.8,109,37.8,109z
		 M42.6,122.2c0,0,0.4,0.1,1,0.1c2.9,0,4.7-1.8,4.7-6s-1.8-6-4.7-6c-0.6,0-1,0.1-1,0.1V122.2z"/>
	<path d="M59.1,124c-3.1,0-5.6-2.4-5.6-5.6c0-3.4,2.2-5.6,5.5-5.6c2.8,0,4.4,1.6,4.4,4.1c0,1-0.2,1.7-0.2,1.7h-6.6
		c0.1,2.1,1.4,3.4,3,3.4c1,0,2.6-0.9,2.6-0.9l0.5,0.9L59.1,124z M56.6,117.7l4-0.5c0,0,0.1-0.4,0.1-1c0-1.4-0.6-2.1-1.6-2.1
		C57.7,114.1,56.7,115.1,56.6,117.7z"/>
	<path d="M72,112.9c1.3,0,1.9,0.7,1.9,0.7l-0.3,3.5h-1.5l-0.3-2.1c0,0-0.2-0.1-0.7-0.1c-0.8,0-2.1,0.8-2.1,0.8v6.7l1.9,0.4v0.8h-6.1
		v-0.8l1.3-0.4v-6.9l-1-1.8l3.2-0.7l0.6,1.6L72,112.9z"/>
	<path d="M88.7,116c0,0,3.7,0.4,3.7,3.8c0,2.1-1.8,3.9-6.5,3.9h-6.1v-0.9l1.6-0.5v-11.7l-1.6-0.5v-0.9H86c4.2,0,5.8,1.7,5.8,3.6
		c0,2.8-3,3.2-3,3.2v0H88.7z M84.7,115.3h1c1.8,0,2.8-1,2.8-2.4c0-1.5-1-2.5-2.8-2.5c-0.6,0-1,0.1-1,0.1V115.3z M84.7,122.2
		c0,0,0.4,0.1,1,0.1c2.3,0,3.5-1.2,3.5-2.8c0-1.6-1.2-2.7-3.5-2.7h-1V122.2z"/>
	<path d="M103.1,121.4l1,1.8l-3.2,0.7l-0.6-1.6l-3.1,1.7c-2.1,0-3.2-1.2-3.2-2.8c0-3.6,6.3-3.9,6.3-3.9v-0.7c0-1.9-0.6-2.5-1.9-2.5
		c-1,0-1.4,0.4-1.4,0.4l-0.4,2.5H95l-0.4-2.9c0,0,1.4-1.2,3.8-1.2c3.2,0,4.7,1.5,4.7,3.7V121.4z M96.8,111.4c-0.9,0-1.6-0.6-1.6-1.5
		c0-0.8,0.6-1.5,1.6-1.5s1.6,0.6,1.6,1.5C98.4,110.8,97.8,111.4,96.8,111.4z M100.2,121.2v-2.8c0,0-3.2,0.3-3.2,2.4
		c0,0.7,0.5,1.3,1.2,1.3C98.9,122,100.2,121.2,100.2,121.2z M101,111.4c-0.9,0-1.6-0.6-1.6-1.5c0-0.8,0.6-1.5,1.6-1.5
		c0.9,0,1.6,0.6,1.6,1.5C102.6,110.8,101.9,111.4,101,111.4z"/>
	<path d="M111.2,124c-3.1,0-5.6-2.4-5.6-5.6c0-3.4,2.2-5.6,5.6-5.6c2,0,3.5,0.7,3.5,0.7l-0.3,3.5h-1.5l-0.3-2.9c0,0-0.3-0.1-0.8-0.1
		c-1.7,0-3,1.4-3,4.4c0,2.2,1.4,3.6,3,3.6c1,0,2.6-0.9,2.6-0.9l0.5,0.9L111.2,124z"/>
	<path d="M120.3,122.4l1.3,0.4v0.8h-5.5v-0.8l1.3-0.4v-13.2l-1.3-0.4V108l4.2-0.8V122.4z M124.2,123.7l-3.6-5.5l3.2-3.8l-1.2-0.4
		v-0.8h4.5v0.8l-1.3,0.4l-2.7,3.1l3.5,4.8l1.3,0.4v0.8h-3.7V123.7z"/>
	<path d="M134.3,124c-3.1,0-5.6-2.4-5.6-5.6c0-3.4,2.2-5.6,5.5-5.6c2.8,0,4.4,1.6,4.4,4.1c0,1-0.2,1.7-0.2,1.7h-6.6
		c0.1,2.1,1.4,3.4,3,3.4c1,0,2.6-0.9,2.6-0.9l0.5,0.9L134.3,124z M131.8,117.7l4-0.5c0,0,0.1-0.4,0.1-1c0-1.4-0.6-2.1-1.6-2.1
		C133,114.1,131.9,115.1,131.8,117.7z"/>
	<path d="M147.2,112.9c1.3,0,1.9,0.7,1.9,0.7l-0.3,3.5h-1.5L147,115c0,0-0.2-0.1-0.7-0.1c-0.8,0-2.1,0.8-2.1,0.8v6.7l1.9,0.4v0.8
		H140v-0.8l1.3-0.4v-6.9l-1-1.8l3.2-0.7l0.6,1.6L147.2,112.9z"/>
	<path d="M151,123.8c-0.9,0-1.6-0.7-1.6-1.6c0-0.8,0.6-1.6,1.6-1.6c0.9,0,1.6,0.7,1.6,1.6S152,123.8,151,123.8z"/>
</g>
</svg>
